<?xml version="1.0" encoding="UTF-8"?>
<!DOCTYPE svg PUBLIC "-//W3C//DTD SVG 1.1//EN" "http://www.w3.org/Graphics/SVG/1.1/DTD/svg11.dtd">
<svg xmlns="http://www.w3.org/2000/svg" version="1.1" viewBox="0 0 57 57" stroke="none">
	<rect width="100%" height="100%" fill="#FFFFFF"/>
	<path d="M4,4h1v1h-1z M5,4h1v1h-1z M6,4h1v1h-1z M7,4h1v1h-1z M8,4h1v1h-1z M9,4h1v1h-1z M10,4h1v1h-1z M15,4h1v1h-1z M17,4h1v1h-1z M18,4h1v1h-1z M21,4h1v1h-1z M22,4h1v1h-1z M23,4h1v1h-1z M24,4h1v1h-1z M25,4h1v1h-1z M27,4h1v1h-1z M30,4h1v1h-1z M31,4h1v1h-1z M33,4h1v1h-1z M34,4h1v1h-1z M35,4h1v1h-1z M37,4h1v1h-1z M38,4h1v1h-1z M39,4h1v1h-1z M40,4h1v1h-1z M41,4h1v1h-1z M44,4h1v1h-1z M46,4h1v1h-1z M47,4h1v1h-1z M48,4h1v1h-1z M49,4h1v1h-1z M50,4h1v1h-1z M51,4h1v1h-1z M52,4h1v1h-1z M4,5h1v1h-1z M10,5h1v1h-1z M13,5h1v1h-1z M18,5h1v1h-1z M19,5h1v1h-1z M22,5h1v1h-1z M23,5h1v1h-1z M24,5h1v1h-1z M26,5h1v1h-1z M27,5h1v1h-1z M30,5h1v1h-1z M31,5h1v1h-1z M36,5h1v1h-1z M37,5h1v1h-1z M38,5h1v1h-1z M39,5h1v1h-1z M40,5h1v1h-1z M42,5h1v1h-1z M43,5h1v1h-1z M44,5h1v1h-1z M46,5h1v1h-1z M52,5h1v1h-1z M4,6h1v1h-1z M6,6h1v1h-1z M7,6h1v1h-1z M8,6h1v1h-1z M10,6h1v1h-1z M12,6h1v1h-1z M13,6h1v1h-1z M16,6h1v1h-1z M17,6h1v1h-1z M18,6h1v1h-1z M19,6h1v1h-1z M21,6h1v1h-1z M23,6h1v1h-1z M24,6h1v1h-1z M25,6h1v1h-1z M26,6h1v1h-1z M27,6h1v1h-1z M31,6h1v1h-1z M32,6h1v1h-1z M35,6h1v1h-1z M38,6h1v1h-1z M39,6h1v1h-1z M41,6h1v1h-1z M43,6h1v1h-1z M44,6h1v1h-1z M46,6h1v1h-1z M48,6h1v1h-1z M49,6h1v1h-1z M50,6h1v1h-1z M52,6h1v1h-1z M4,7h1v1h-1z M6,7h1v1h-1z M7,7h1v1h-1z M8,7h1v1h-1z M10,7h1v1h-1z M12,7h1v1h-1z M14,7h1v1h-1z M16,7h1v1h-1z M17,7h1v1h-1z M18,7h1v1h-1z M21,7h1v1h-1z M22,7h1v1h-1z M23,7h1v1h-1z M25,7h1v1h-1z M29,7h1v1h-1z M35,7h1v1h-1z M40,7h1v1h-1z M43,7h1v1h-1z M46,7h1v1h-1z M48,7h1v1h-1z M49,7h1v1h-1z M50,7h1v1h-1z M52,7h1v1h-1z M4,8h1v1h-1z M6,8h1v1h-1z M7,8h1v1h-1z M8,8h1v1h-1z M10,8h1v1h-1z M13,8h1v1h-1z M14,8h1v1h-1z M15,8h1v1h-1z M18,8h1v1h-1z M19,8h1v1h-1z M20,8h1v1h-1z M22,8h1v1h-1z M24,8h1v1h-1z M26,8h1v1h-1z M27,8h1v1h-1z M28,8h1v1h-1z M29,8h1v1h-1z M30,8h1v1h-1z M31,8h1v1h-1z M36,8h1v1h-1z M37,8h1v1h-1z M39,8h1v1h-1z M41,8h1v1h-1z M46,8h1v1h-1z M48,8h1v1h-1z M49,8h1v1h-1z M50,8h1v1h-1z M52,8h1v1h-1z M4,9h1v1h-1z M10,9h1v1h-1z M13,9h1v1h-1z M16,9h1v1h-1z M17,9h1v1h-1z M18,9h1v1h-1z M19,9h1v1h-1z M20,9h1v1h-1z M24,9h1v1h-1z M25,9h1v1h-1z M26,9h1v1h-1z M30,9h1v1h-1z M32,9h1v1h-1z M33,9h1v1h-1z M34,9h1v1h-1z M35,9h1v1h-1z M36,9h1v1h-1z M37,9h1v1h-1z M39,9h1v1h-1z M40,9h1v1h-1z M41,9h1v1h-1z M42,9h1v1h-1z M46,9h1v1h-1z M52,9h1v1h-1z M4,10h1v1h-1z M5,10h1v1h-1z M6,10h1v1h-1z M7,10h1v1h-1z M8,10h1v1h-1z M9,10h1v1h-1z M10,10h1v1h-1z M12,10h1v1h-1z M14,10h1v1h-1z M16,10h1v1h-1z M18,10h1v1h-1z M20,10h1v1h-1z M22,10h1v1h-1z M24,10h1v1h-1z M26,10h1v1h-1z M28,10h1v1h-1z M30,10h1v1h-1z M32,10h1v1h-1z M34,10h1v1h-1z M36,10h1v1h-1z M38,10h1v1h-1z M40,10h1v1h-1z M42,10h1v1h-1z M44,10h1v1h-1z M46,10h1v1h-1z M47,10h1v1h-1z M48,10h1v1h-1z M49,10h1v1h-1z M50,10h1v1h-1z M51,10h1v1h-1z M52,10h1v1h-1z M17,11h1v1h-1z M18,11h1v1h-1z M21,11h1v1h-1z M24,11h1v1h-1z M26,11h1v1h-1z M30,11h1v1h-1z M32,11h1v1h-1z M33,11h1v1h-1z M34,11h1v1h-1z M37,11h1v1h-1z M40,11h1v1h-1z M41,11h1v1h-1z M42,11h1v1h-1z M43,11h1v1h-1z M7,12h1v1h-1z M8,12h1v1h-1z M10,12h1v1h-1z M11,12h1v1h-1z M13,12h1v1h-1z M14,12h1v1h-1z M15,12h1v1h-1z M21,12h1v1h-1z M25,12h1v1h-1z M26,12h1v1h-1z M27,12h1v1h-1z M28,12h1v1h-1z M29,12h1v1h-1z M30,12h1v1h-1z M32,12h1v1h-1z M34,12h1v1h-1z M36,12h1v1h-1z M37,12h1v1h-1z M38,12h1v1h-1z M39,12h1v1h-1z M41,12h1v1h-1z M42,12h1v1h-1z M49,12h1v1h-1z M50,12h1v1h-1z M7,13h1v1h-1z M9,13h1v1h-1z M11,13h1v1h-1z M13,13h1v1h-1z M14,13h1v1h-1z M16,13h1v1h-1z M18,13h1v1h-1z M20,13h1v1h-1z M22,13h1v1h-1z M24,13h1v1h-1z M25,13h1v1h-1z M26,13h1v1h-1z M27,13h1v1h-1z M30,13h1v1h-1z M31,13h1v1h-1z M32,13h1v1h-1z M33,13h1v1h-1z M34,13h1v1h-1z M38,13h1v1h-1z M42,13h1v1h-1z M44,13h1v1h-1z M45,13h1v1h-1z M46,13h1v1h-1z M48,13h1v1h-1z M49,13h1v1h-1z M50,13h1v1h-1z M52,13h1v1h-1z M5,14h1v1h-1z M8,14h1v1h-1z M9,14h1v1h-1z M10,14h1v1h-1z M11,14h1v1h-1z M12,14h1v1h-1z M13,14h1v1h-1z M16,14h1v1h-1z M19,14h1v1h-1z M21,14h1v1h-1z M22,14h1v1h-1z M23,14h1v1h-1z M25,14h1v1h-1z M26,14h1v1h-1z M27,14h1v1h-1z M30,14h1v1h-1z M32,14h1v1h-1z M33,14h1v1h-1z M34,14h1v1h-1z M38,14h1v1h-1z M41,14h1v1h-1z M43,14h1v1h-1z M44,14h1v1h-1z M45,14h1v1h-1z M46,14h1v1h-1z M47,14h1v1h-1z M48,14h1v1h-1z M49,14h1v1h-1z M52,14h1v1h-1z M4,15h1v1h-1z M5,15h1v1h-1z M7,15h1v1h-1z M9,15h1v1h-1z M11,15h1v1h-1z M12,15h1v1h-1z M17,15h1v1h-1z M18,15h1v1h-1z M20,15h1v1h-1z M21,15h1v1h-1z M23,15h1v1h-1z M26,15h1v1h-1z M27,15h1v1h-1z M28,15h1v1h-1z M34,15h1v1h-1z M35,15h1v1h-1z M38,15h1v1h-1z M39,15h1v1h-1z M40,15h1v1h-1z M42,15h1v1h-1z M44,15h1v1h-1z M46,15h1v1h-1z M47,15h1v1h-1z M48,15h1v1h-1z M49,15h1v1h-1z M50,15h1v1h-1z M51,15h1v1h-1z M4,16h1v1h-1z M5,16h1v1h-1z M7,16h1v1h-1z M8,16h1v1h-1z M9,16h1v1h-1z M10,16h1v1h-1z M12,16h1v1h-1z M14,16h1v1h-1z M15,16h1v1h-1z M16,16h1v1h-1z M17,16h1v1h-1z M19,16h1v1h-1z M21,16h1v1h-1z M25,16h1v1h-1z M26,16h1v1h-1z M27,16h1v1h-1z M28,16h1v1h-1z M29,16h1v1h-1z M31,16h1v1h-1z M40,16h1v1h-1z M42,16h1v1h-1z M45,16h1v1h-1z M46,16h1v1h-1z M47,16h1v1h-1z M48,16h1v1h-1z M49,16h1v1h-1z M50,16h1v1h-1z M51,16h1v1h-1z M52,16h1v1h-1z M5,17h1v1h-1z M9,17h1v1h-1z M12,17h1v1h-1z M13,17h1v1h-1z M15,17h1v1h-1z M19,17h1v1h-1z M20,17h1v1h-1z M21,17h1v1h-1z M22,17h1v1h-1z M23,17h1v1h-1z M24,17h1v1h-1z M25,17h1v1h-1z M26,17h1v1h-1z M29,17h1v1h-1z M30,17h1v1h-1z M33,17h1v1h-1z M35,17h1v1h-1z M37,17h1v1h-1z M40,17h1v1h-1z M42,17h1v1h-1z M45,17h1v1h-1z M46,17h1v1h-1z M47,17h1v1h-1z M49,17h1v1h-1z M50,17h1v1h-1z M51,17h1v1h-1z M5,18h1v1h-1z M6,18h1v1h-1z M10,18h1v1h-1z M13,18h1v1h-1z M14,18h1v1h-1z M15,18h1v1h-1z M17,18h1v1h-1z M18,18h1v1h-1z M19,18h1v1h-1z M22,18h1v1h-1z M23,18h1v1h-1z M24,18h1v1h-1z M26,18h1v1h-1z M29,18h1v1h-1z M30,18h1v1h-1z M33,18h1v1h-1z M34,18h1v1h-1z M37,18h1v1h-1z M40,18h1v1h-1z M41,18h1v1h-1z M43,18h1v1h-1z M46,18h1v1h-1z M49,18h1v1h-1z M52,18h1v1h-1z M4,19h1v1h-1z M5,19h1v1h-1z M9,19h1v1h-1z M12,19h1v1h-1z M13,19h1v1h-1z M15,19h1v1h-1z M16,19h1v1h-1z M17,19h1v1h-1z M19,19h1v1h-1z M20,19h1v1h-1z M21,19h1v1h-1z M22,19h1v1h-1z M23,19h1v1h-1z M26,19h1v1h-1z M27,19h1v1h-1z M29,19h1v1h-1z M30,19h1v1h-1z M31,19h1v1h-1z M32,19h1v1h-1z M36,19h1v1h-1z M38,19h1v1h-1z M40,19h1v1h-1z M42,19h1v1h-1z M43,19h1v1h-1z M44,19h1v1h-1z M45,19h1v1h-1z M48,19h1v1h-1z M49,19h1v1h-1z M50,19h1v1h-1z M51,19h1v1h-1z M52,19h1v1h-1z M8,20h1v1h-1z M10,20h1v1h-1z M11,20h1v1h-1z M12,20h1v1h-1z M13,20h1v1h-1z M14,20h1v1h-1z M15,20h1v1h-1z M18,20h1v1h-1z M19,20h1v1h-1z M20,20h1v1h-1z M22,20h1v1h-1z M29,20h1v1h-1z M30,20h1v1h-1z M32,20h1v1h-1z M33,20h1v1h-1z M40,20h1v1h-1z M41,20h1v1h-1z M42,20h1v1h-1z M43,20h1v1h-1z M46,20h1v1h-1z M47,20h1v1h-1z M48,20h1v1h-1z M50,20h1v1h-1z M51,20h1v1h-1z M52,20h1v1h-1z M4,21h1v1h-1z M5,21h1v1h-1z M6,21h1v1h-1z M8,21h1v1h-1z M11,21h1v1h-1z M12,21h1v1h-1z M13,21h1v1h-1z M14,21h1v1h-1z M16,21h1v1h-1z M19,21h1v1h-1z M22,21h1v1h-1z M23,21h1v1h-1z M24,21h1v1h-1z M26,21h1v1h-1z M29,21h1v1h-1z M30,21h1v1h-1z M31,21h1v1h-1z M32,21h1v1h-1z M33,21h1v1h-1z M36,21h1v1h-1z M38,21h1v1h-1z M40,21h1v1h-1z M43,21h1v1h-1z M46,21h1v1h-1z M47,21h1v1h-1z M48,21h1v1h-1z M49,21h1v1h-1z M50,21h1v1h-1z M51,21h1v1h-1z M52,21h1v1h-1z M6,22h1v1h-1z M7,22h1v1h-1z M10,22h1v1h-1z M12,22h1v1h-1z M14,22h1v1h-1z M16,22h1v1h-1z M17,22h1v1h-1z M21,22h1v1h-1z M25,22h1v1h-1z M27,22h1v1h-1z M30,22h1v1h-1z M31,22h1v1h-1z M33,22h1v1h-1z M34,22h1v1h-1z M36,22h1v1h-1z M38,22h1v1h-1z M39,22h1v1h-1z M40,22h1v1h-1z M42,22h1v1h-1z M43,22h1v1h-1z M45,22h1v1h-1z M47,22h1v1h-1z M48,22h1v1h-1z M52,22h1v1h-1z M5,23h1v1h-1z M7,23h1v1h-1z M8,23h1v1h-1z M9,23h1v1h-1z M14,23h1v1h-1z M16,23h1v1h-1z M17,23h1v1h-1z M19,23h1v1h-1z M20,23h1v1h-1z M21,23h1v1h-1z M22,23h1v1h-1z M23,23h1v1h-1z M24,23h1v1h-1z M27,23h1v1h-1z M30,23h1v1h-1z M34,23h1v1h-1z M40,23h1v1h-1z M42,23h1v1h-1z M43,23h1v1h-1z M44,23h1v1h-1z M46,23h1v1h-1z M47,23h1v1h-1z M48,23h1v1h-1z M49,23h1v1h-1z M5,24h1v1h-1z M7,24h1v1h-1z M8,24h1v1h-1z M10,24h1v1h-1z M11,24h1v1h-1z M12,24h1v1h-1z M13,24h1v1h-1z M14,24h1v1h-1z M16,24h1v1h-1z M18,24h1v1h-1z M22,24h1v1h-1z M23,24h1v1h-1z M24,24h1v1h-1z M26,24h1v1h-1z M27,24h1v1h-1z M28,24h1v1h-1z M33,24h1v1h-1z M34,24h1v1h-1z M36,24h1v1h-1z M38,24h1v1h-1z M39,24h1v1h-1z M40,24h1v1h-1z M41,24h1v1h-1z M45,24h1v1h-1z M46,24h1v1h-1z M49,24h1v1h-1z M50,24h1v1h-1z M52,24h1v1h-1z M5,25h1v1h-1z M6,25h1v1h-1z M7,25h1v1h-1z M11,25h1v1h-1z M16,25h1v1h-1z M20,25h1v1h-1z M22,25h1v1h-1z M23,25h1v1h-1z M27,25h1v1h-1z M28,25h1v1h-1z M29,25h1v1h-1z M34,25h1v1h-1z M36,25h1v1h-1z M37,25h1v1h-1z M38,25h1v1h-1z M39,25h1v1h-1z M42,25h1v1h-1z M44,25h1v1h-1z M46,25h1v1h-1z M49,25h1v1h-1z M50,25h1v1h-1z M51,25h1v1h-1z M4,26h1v1h-1z M6,26h1v1h-1z M7,26h1v1h-1z M8,26h1v1h-1z M9,26h1v1h-1z M10,26h1v1h-1z M11,26h1v1h-1z M12,26h1v1h-1z M13,26h1v1h-1z M15,26h1v1h-1z M17,26h1v1h-1z M19,26h1v1h-1z M21,26h1v1h-1z M22,26h1v1h-1z M25,26h1v1h-1z M26,26h1v1h-1z M27,26h1v1h-1z M28,26h1v1h-1z M29,26h1v1h-1z M30,26h1v1h-1z M31,26h1v1h-1z M32,26h1v1h-1z M33,26h1v1h-1z M34,26h1v1h-1z M37,26h1v1h-1z M40,26h1v1h-1z M41,26h1v1h-1z M43,26h1v1h-1z M44,26h1v1h-1z M45,26h1v1h-1z M46,26h1v1h-1z M47,26h1v1h-1z M48,26h1v1h-1z M51,26h1v1h-1z M52,26h1v1h-1z M5,27h1v1h-1z M6,27h1v1h-1z M8,27h1v1h-1z M12,27h1v1h-1z M13,27h1v1h-1z M14,27h1v1h-1z M15,27h1v1h-1z M16,27h1v1h-1z M23,27h1v1h-1z M24,27h1v1h-1z M26,27h1v1h-1z M30,27h1v1h-1z M33,27h1v1h-1z M34,27h1v1h-1z M38,27h1v1h-1z M42,27h1v1h-1z M44,27h1v1h-1z M48,27h1v1h-1z M50,27h1v1h-1z M5,28h1v1h-1z M7,28h1v1h-1z M8,28h1v1h-1z M10,28h1v1h-1z M12,28h1v1h-1z M13,28h1v1h-1z M14,28h1v1h-1z M16,28h1v1h-1z M18,28h1v1h-1z M19,28h1v1h-1z M20,28h1v1h-1z M21,28h1v1h-1z M24,28h1v1h-1z M26,28h1v1h-1z M28,28h1v1h-1z M30,28h1v1h-1z M31,28h1v1h-1z M32,28h1v1h-1z M34,28h1v1h-1z M37,28h1v1h-1z M39,28h1v1h-1z M40,28h1v1h-1z M42,28h1v1h-1z M43,28h1v1h-1z M44,28h1v1h-1z M46,28h1v1h-1z M48,28h1v1h-1z M51,28h1v1h-1z M4,29h1v1h-1z M8,29h1v1h-1z M12,29h1v1h-1z M13,29h1v1h-1z M18,29h1v1h-1z M19,29h1v1h-1z M20,29h1v1h-1z M21,29h1v1h-1z M25,29h1v1h-1z M26,29h1v1h-1z M30,29h1v1h-1z M31,29h1v1h-1z M32,29h1v1h-1z M33,29h1v1h-1z M35,29h1v1h-1z M37,29h1v1h-1z M42,29h1v1h-1z M43,29h1v1h-1z M44,29h1v1h-1z M48,29h1v1h-1z M49,29h1v1h-1z M4,30h1v1h-1z M6,30h1v1h-1z M7,30h1v1h-1z M8,30h1v1h-1z M9,30h1v1h-1z M10,30h1v1h-1z M11,30h1v1h-1z M12,30h1v1h-1z M13,30h1v1h-1z M15,30h1v1h-1z M18,30h1v1h-1z M19,30h1v1h-1z M22,30h1v1h-1z M24,30h1v1h-1z M25,30h1v1h-1z M26,30h1v1h-1z M27,30h1v1h-1z M28,30h1v1h-1z M29,30h1v1h-1z M30,30h1v1h-1z M31,30h1v1h-1z M32,30h1v1h-1z M34,30h1v1h-1z M36,30h1v1h-1z M37,30h1v1h-1z M38,30h1v1h-1z M40,30h1v1h-1z M41,30h1v1h-1z M43,30h1v1h-1z M44,30h1v1h-1z M45,30h1v1h-1z M46,30h1v1h-1z M47,30h1v1h-1z M48,30h1v1h-1z M52,30h1v1h-1z M4,31h1v1h-1z M5,31h1v1h-1z M6,31h1v1h-1z M8,31h1v1h-1z M11,31h1v1h-1z M12,31h1v1h-1z M18,31h1v1h-1z M21,31h1v1h-1z M23,31h1v1h-1z M25,31h1v1h-1z M28,31h1v1h-1z M32,31h1v1h-1z M39,31h1v1h-1z M41,31h1v1h-1z M42,31h1v1h-1z M45,31h1v1h-1z M48,31h1v1h-1z M49,31h1v1h-1z M50,31h1v1h-1z M51,31h1v1h-1z M6,32h1v1h-1z M7,32h1v1h-1z M9,32h1v1h-1z M10,32h1v1h-1z M12,32h1v1h-1z M16,32h1v1h-1z M17,32h1v1h-1z M19,32h1v1h-1z M20,32h1v1h-1z M22,32h1v1h-1z M23,32h1v1h-1z M24,32h1v1h-1z M25,32h1v1h-1z M27,32h1v1h-1z M28,32h1v1h-1z M31,32h1v1h-1z M32,32h1v1h-1z M33,32h1v1h-1z M34,32h1v1h-1z M35,32h1v1h-1z M36,32h1v1h-1z M37,32h1v1h-1z M39,32h1v1h-1z M40,32h1v1h-1z M41,32h1v1h-1z M42,32h1v1h-1z M43,32h1v1h-1z M46,32h1v1h-1z M49,32h1v1h-1z M4,33h1v1h-1z M6,33h1v1h-1z M7,33h1v1h-1z M12,33h1v1h-1z M13,33h1v1h-1z M14,33h1v1h-1z M15,33h1v1h-1z M16,33h1v1h-1z M17,33h1v1h-1z M18,33h1v1h-1z M20,33h1v1h-1z M21,33h1v1h-1z M23,33h1v1h-1z M24,33h1v1h-1z M25,33h1v1h-1z M26,33h1v1h-1z M29,33h1v1h-1z M32,33h1v1h-1z M33,33h1v1h-1z M34,33h1v1h-1z M35,33h1v1h-1z M36,33h1v1h-1z M37,33h1v1h-1z M38,33h1v1h-1z M40,33h1v1h-1z M43,33h1v1h-1z M45,33h1v1h-1z M46,33h1v1h-1z M47,33h1v1h-1z M49,33h1v1h-1z M50,33h1v1h-1z M51,33h1v1h-1z M52,33h1v1h-1z M4,34h1v1h-1z M7,34h1v1h-1z M9,34h1v1h-1z M10,34h1v1h-1z M11,34h1v1h-1z M14,34h1v1h-1z M15,34h1v1h-1z M17,34h1v1h-1z M19,34h1v1h-1z M21,34h1v1h-1z M22,34h1v1h-1z M24,34h1v1h-1z M25,34h1v1h-1z M26,34h1v1h-1z M27,34h1v1h-1z M30,34h1v1h-1z M32,34h1v1h-1z M34,34h1v1h-1z M36,34h1v1h-1z M37,34h1v1h-1z M38,34h1v1h-1z M39,34h1v1h-1z M43,34h1v1h-1z M45,34h1v1h-1z M46,34h1v1h-1z M49,34h1v1h-1z M50,34h1v1h-1z M52,34h1v1h-1z M4,35h1v1h-1z M6,35h1v1h-1z M8,35h1v1h-1z M12,35h1v1h-1z M16,35h1v1h-1z M17,35h1v1h-1z M18,35h1v1h-1z M19,35h1v1h-1z M20,35h1v1h-1z M21,35h1v1h-1z M26,35h1v1h-1z M27,35h1v1h-1z M29,35h1v1h-1z M30,35h1v1h-1z M34,35h1v1h-1z M36,35h1v1h-1z M39,35h1v1h-1z M40,35h1v1h-1z M41,35h1v1h-1z M43,35h1v1h-1z M45,35h1v1h-1z M49,35h1v1h-1z M51,35h1v1h-1z M5,36h1v1h-1z M6,36h1v1h-1z M8,36h1v1h-1z M10,36h1v1h-1z M15,36h1v1h-1z M18,36h1v1h-1z M19,36h1v1h-1z M22,36h1v1h-1z M23,36h1v1h-1z M24,36h1v1h-1z M29,36h1v1h-1z M31,36h1v1h-1z M32,36h1v1h-1z M33,36h1v1h-1z M34,36h1v1h-1z M35,36h1v1h-1z M40,36h1v1h-1z M43,36h1v1h-1z M44,36h1v1h-1z M46,36h1v1h-1z M48,36h1v1h-1z M49,36h1v1h-1z M50,36h1v1h-1z M51,36h1v1h-1z M52,36h1v1h-1z M6,37h1v1h-1z M7,37h1v1h-1z M9,37h1v1h-1z M11,37h1v1h-1z M15,37h1v1h-1z M18,37h1v1h-1z M23,37h1v1h-1z M25,37h1v1h-1z M27,37h1v1h-1z M28,37h1v1h-1z M29,37h1v1h-1z M30,37h1v1h-1z M31,37h1v1h-1z M34,37h1v1h-1z M35,37h1v1h-1z M36,37h1v1h-1z M38,37h1v1h-1z M39,37h1v1h-1z M40,37h1v1h-1z M41,37h1v1h-1z M42,37h1v1h-1z M46,37h1v1h-1z M48,37h1v1h-1z M50,37h1v1h-1z M51,37h1v1h-1z M4,38h1v1h-1z M10,38h1v1h-1z M13,38h1v1h-1z M17,38h1v1h-1z M18,38h1v1h-1z M19,38h1v1h-1z M20,38h1v1h-1z M21,38h1v1h-1z M23,38h1v1h-1z M25,38h1v1h-1z M26,38h1v1h-1z M28,38h1v1h-1z M29,38h1v1h-1z M31,38h1v1h-1z M33,38h1v1h-1z M36,38h1v1h-1z M38,38h1v1h-1z M39,38h1v1h-1z M40,38h1v1h-1z M42,38h1v1h-1z M43,38h1v1h-1z M44,38h1v1h-1z M46,38h1v1h-1z M48,38h1v1h-1z M51,38h1v1h-1z M52,38h1v1h-1z M4,39h1v1h-1z M5,39h1v1h-1z M9,39h1v1h-1z M13,39h1v1h-1z M14,39h1v1h-1z M18,39h1v1h-1z M20,39h1v1h-1z M26,39h1v1h-1z M27,39h1v1h-1z M29,39h1v1h-1z M30,39h1v1h-1z M31,39h1v1h-1z M32,39h1v1h-1z M33,39h1v1h-1z M34,39h1v1h-1z M36,39h1v1h-1z M38,39h1v1h-1z M39,39h1v1h-1z M43,39h1v1h-1z M44,39h1v1h-1z M45,39h1v1h-1z M46,39h1v1h-1z M50,39h1v1h-1z M52,39h1v1h-1z M5,40h1v1h-1z M7,40h1v1h-1z M8,40h1v1h-1z M10,40h1v1h-1z M14,40h1v1h-1z M16,40h1v1h-1z M18,40h1v1h-1z M19,40h1v1h-1z M24,40h1v1h-1z M28,40h1v1h-1z M32,40h1v1h-1z M34,40h1v1h-1z M36,40h1v1h-1z M38,40h1v1h-1z M39,40h1v1h-1z M40,40h1v1h-1z M43,40h1v1h-1z M45,40h1v1h-1z M46,40h1v1h-1z M47,40h1v1h-1z M48,40h1v1h-1z M51,40h1v1h-1z M52,40h1v1h-1z M4,41h1v1h-1z M5,41h1v1h-1z M6,41h1v1h-1z M7,41h1v1h-1z M9,41h1v1h-1z M11,41h1v1h-1z M13,41h1v1h-1z M16,41h1v1h-1z M17,41h1v1h-1z M20,41h1v1h-1z M23,41h1v1h-1z M25,41h1v1h-1z M26,41h1v1h-1z M27,41h1v1h-1z M30,41h1v1h-1z M32,41h1v1h-1z M34,41h1v1h-1z M35,41h1v1h-1z M37,41h1v1h-1z M40,41h1v1h-1z M41,41h1v1h-1z M42,41h1v1h-1z M48,41h1v1h-1z M49,41h1v1h-1z M51,41h1v1h-1z M5,42h1v1h-1z M9,42h1v1h-1z M10,42h1v1h-1z M12,42h1v1h-1z M15,42h1v1h-1z M17,42h1v1h-1z M18,42h1v1h-1z M19,42h1v1h-1z M20,42h1v1h-1z M23,42h1v1h-1z M28,42h1v1h-1z M29,42h1v1h-1z M31,42h1v1h-1z M32,42h1v1h-1z M35,42h1v1h-1z M42,42h1v1h-1z M45,42h1v1h-1z M46,42h1v1h-1z M47,42h1v1h-1z M49,42h1v1h-1z M50,42h1v1h-1z M52,42h1v1h-1z M5,43h1v1h-1z M6,43h1v1h-1z M7,43h1v1h-1z M12,43h1v1h-1z M15,43h1v1h-1z M20,43h1v1h-1z M21,43h1v1h-1z M22,43h1v1h-1z M23,43h1v1h-1z M25,43h1v1h-1z M30,43h1v1h-1z M33,43h1v1h-1z M35,43h1v1h-1z M37,43h1v1h-1z M40,43h1v1h-1z M41,43h1v1h-1z M43,43h1v1h-1z M44,43h1v1h-1z M46,43h1v1h-1z M47,43h1v1h-1z M48,43h1v1h-1z M49,43h1v1h-1z M50,43h1v1h-1z M4,44h1v1h-1z M5,44h1v1h-1z M6,44h1v1h-1z M10,44h1v1h-1z M12,44h1v1h-1z M13,44h1v1h-1z M15,44h1v1h-1z M19,44h1v1h-1z M22,44h1v1h-1z M23,44h1v1h-1z M26,44h1v1h-1z M27,44h1v1h-1z M28,44h1v1h-1z M29,44h1v1h-1z M30,44h1v1h-1z M32,44h1v1h-1z M34,44h1v1h-1z M36,44h1v1h-1z M37,44h1v1h-1z M38,44h1v1h-1z M40,44h1v1h-1z M43,44h1v1h-1z M44,44h1v1h-1z M45,44h1v1h-1z M46,44h1v1h-1z M47,44h1v1h-1z M48,44h1v1h-1z M49,44h1v1h-1z M50,44h1v1h-1z M52,44h1v1h-1z M12,45h1v1h-1z M13,45h1v1h-1z M16,45h1v1h-1z M18,45h1v1h-1z M19,45h1v1h-1z M21,45h1v1h-1z M23,45h1v1h-1z M24,45h1v1h-1z M25,45h1v1h-1z M26,45h1v1h-1z M30,45h1v1h-1z M36,45h1v1h-1z M37,45h1v1h-1z M39,45h1v1h-1z M40,45h1v1h-1z M41,45h1v1h-1z M42,45h1v1h-1z M43,45h1v1h-1z M44,45h1v1h-1z M48,45h1v1h-1z M49,45h1v1h-1z M50,45h1v1h-1z M4,46h1v1h-1z M5,46h1v1h-1z M6,46h1v1h-1z M7,46h1v1h-1z M8,46h1v1h-1z M9,46h1v1h-1z M10,46h1v1h-1z M12,46h1v1h-1z M14,46h1v1h-1z M15,46h1v1h-1z M16,46h1v1h-1z M17,46h1v1h-1z M18,46h1v1h-1z M20,46h1v1h-1z M21,46h1v1h-1z M22,46h1v1h-1z M23,46h1v1h-1z M24,46h1v1h-1z M26,46h1v1h-1z M28,46h1v1h-1z M30,46h1v1h-1z M31,46h1v1h-1z M33,46h1v1h-1z M35,46h1v1h-1z M36,46h1v1h-1z M37,46h1v1h-1z M38,46h1v1h-1z M40,46h1v1h-1z M41,46h1v1h-1z M42,46h1v1h-1z M43,46h1v1h-1z M44,46h1v1h-1z M46,46h1v1h-1z M48,46h1v1h-1z M49,46h1v1h-1z M51,46h1v1h-1z M52,46h1v1h-1z M4,47h1v1h-1z M10,47h1v1h-1z M13,47h1v1h-1z M14,47h1v1h-1z M19,47h1v1h-1z M20,47h1v1h-1z M21,47h1v1h-1z M22,47h1v1h-1z M26,47h1v1h-1z M30,47h1v1h-1z M34,47h1v1h-1z M35,47h1v1h-1z M36,47h1v1h-1z M37,47h1v1h-1z M39,47h1v1h-1z M41,47h1v1h-1z M43,47h1v1h-1z M44,47h1v1h-1z M48,47h1v1h-1z M49,47h1v1h-1z M52,47h1v1h-1z M4,48h1v1h-1z M6,48h1v1h-1z M7,48h1v1h-1z M8,48h1v1h-1z M10,48h1v1h-1z M12,48h1v1h-1z M14,48h1v1h-1z M15,48h1v1h-1z M18,48h1v1h-1z M19,48h1v1h-1z M21,48h1v1h-1z M23,48h1v1h-1z M26,48h1v1h-1z M27,48h1v1h-1z M28,48h1v1h-1z M29,48h1v1h-1z M30,48h1v1h-1z M32,48h1v1h-1z M34,48h1v1h-1z M38,48h1v1h-1z M40,48h1v1h-1z M41,48h1v1h-1z M43,48h1v1h-1z M44,48h1v1h-1z M45,48h1v1h-1z M46,48h1v1h-1z M47,48h1v1h-1z M48,48h1v1h-1z M49,48h1v1h-1z M50,48h1v1h-1z M51,48h1v1h-1z M52,48h1v1h-1z M4,49h1v1h-1z M6,49h1v1h-1z M7,49h1v1h-1z M8,49h1v1h-1z M10,49h1v1h-1z M12,49h1v1h-1z M15,49h1v1h-1z M16,49h1v1h-1z M17,49h1v1h-1z M19,49h1v1h-1z M21,49h1v1h-1z M25,49h1v1h-1z M29,49h1v1h-1z M31,49h1v1h-1z M33,49h1v1h-1z M34,49h1v1h-1z M35,49h1v1h-1z M38,49h1v1h-1z M40,49h1v1h-1z M42,49h1v1h-1z M44,49h1v1h-1z M45,49h1v1h-1z M46,49h1v1h-1z M47,49h1v1h-1z M50,49h1v1h-1z M52,49h1v1h-1z M4,50h1v1h-1z M6,50h1v1h-1z M7,50h1v1h-1z M8,50h1v1h-1z M10,50h1v1h-1z M13,50h1v1h-1z M14,50h1v1h-1z M16,50h1v1h-1z M17,50h1v1h-1z M22,50h1v1h-1z M24,50h1v1h-1z M25,50h1v1h-1z M27,50h1v1h-1z M28,50h1v1h-1z M30,50h1v1h-1z M31,50h1v1h-1z M32,50h1v1h-1z M33,50h1v1h-1z M34,50h1v1h-1z M36,50h1v1h-1z M38,50h1v1h-1z M40,50h1v1h-1z M41,50h1v1h-1z M43,50h1v1h-1z M45,50h1v1h-1z M46,50h1v1h-1z M48,50h1v1h-1z M49,50h1v1h-1z M52,50h1v1h-1z M4,51h1v1h-1z M10,51h1v1h-1z M17,51h1v1h-1z M18,51h1v1h-1z M19,51h1v1h-1z M21,51h1v1h-1z M23,51h1v1h-1z M28,51h1v1h-1z M29,51h1v1h-1z M30,51h1v1h-1z M33,51h1v1h-1z M34,51h1v1h-1z M35,51h1v1h-1z M36,51h1v1h-1z M37,51h1v1h-1z M38,51h1v1h-1z M44,51h1v1h-1z M45,51h1v1h-1z M46,51h1v1h-1z M47,51h1v1h-1z M50,51h1v1h-1z M51,51h1v1h-1z M52,51h1v1h-1z M4,52h1v1h-1z M5,52h1v1h-1z M6,52h1v1h-1z M7,52h1v1h-1z M8,52h1v1h-1z M9,52h1v1h-1z M10,52h1v1h-1z M14,52h1v1h-1z M16,52h1v1h-1z M18,52h1v1h-1z M20,52h1v1h-1z M21,52h1v1h-1z M25,52h1v1h-1z M26,52h1v1h-1z M27,52h1v1h-1z M28,52h1v1h-1z M30,52h1v1h-1z M32,52h1v1h-1z M35,52h1v1h-1z M36,52h1v1h-1z M37,52h1v1h-1z M39,52h1v1h-1z M40,52h1v1h-1z M42,52h1v1h-1z M48,52h1v1h-1z M52,52h1v1h-1z" fill="#000000"/>
</svg>
